<?xml version="1.0" encoding="utf-8" standalone="no"?>
<!DOCTYPE svg PUBLIC "-//W3C//DTD SVG 1.1//EN"
  "http://www.w3.org/Graphics/SVG/1.1/DTD/svg11.dtd">
<!-- Created with matplotlib (http://matplotlib.org/) -->
<svg height="288pt" version="1.1" viewBox="0 0 576 288" width="576pt" xmlns="http://www.w3.org/2000/svg" xmlns:xlink="http://www.w3.org/1999/xlink">
 <defs>
  <style type="text/css">
*{stroke-linecap:butt;stroke-linejoin:round;}
  </style>
 </defs>
 <g id="figure_1">
  <g id="patch_1">
   <path d="M 0 288 
L 576 288 
L 576 0 
L 0 0 
z
" style="fill:#ffffff;"/>
  </g>
  <g id="axes_1">
   <g id="patch_2">
    <path d="M 47.54 243.16 
L 558.81 243.16 
L 558.81 14.76 
L 47.54 14.76 
z
" style="fill:#ffffff;"/>
   </g>
   <g id="matplotlib.axis_1">
    <g id="xtick_1">
     <g id="line2d_1">
      <path clip-path="url(#peeb8858773)" d="M 47.54 243.16 
L 47.54 14.76 
" style="fill:none;stroke:#b0b0b0;stroke-linecap:square;stroke-width:0.8;"/>
     </g>
     <g id="line2d_2">
      <defs>
       <path d="M 0 0 
L 0 3.5 
" id="m6a1d204011" style="stroke:#000000;stroke-width:0.8;"/>
      </defs>
      <g>
       <use style="stroke:#000000;stroke-width:0.8;" x="47.54" xlink:href="#m6a1d204011" y="243.16"/>
      </g>
     </g>
     <g id="text_1">
      <!-- 1 -->
      <defs>
       <path d="M 12.40625 8.296875 
L 28.515625 8.296875 
L 28.515625 63.921875 
L 10.984375 60.40625 
L 10.984375 69.390625 
L 28.421875 72.90625 
L 38.28125 72.90625 
L 38.28125 8.296875 
L 54.390625 8.296875 
L 54.390625 0 
L 12.40625 0 
z
" id="DejaVuSans-31"/>
      </defs>
      <g transform="translate(44.35875 257.758438)scale(0.1 -0.1)">
       <use xlink:href="#DejaVuSans-31"/>
      </g>
     </g>
    </g>
    <g id="xtick_2">
     <g id="line2d_3">
      <path clip-path="url(#peeb8858773)" d="M 53.416667 243.16 
L 53.416667 14.76 
" style="fill:none;stroke:#b0b0b0;stroke-linecap:square;stroke-width:0.8;"/>
     </g>
     <g id="line2d_4">
      <g>
       <use style="stroke:#000000;stroke-width:0.8;" x="53.416667" xlink:href="#m6a1d204011" y="243.16"/>
      </g>
     </g>
     <g id="text_2">
      <!-- 2 -->
      <defs>
       <path d="M 19.1875 8.296875 
L 53.609375 8.296875 
L 53.609375 0 
L 7.328125 0 
L 7.328125 8.296875 
Q 12.9375 14.109375 22.625 23.890625 
Q 32.328125 33.6875 34.8125 36.53125 
Q 39.546875 41.84375 41.421875 45.53125 
Q 43.3125 49.21875 43.3125 52.78125 
Q 43.3125 58.59375 39.234375 62.25 
Q 35.15625 65.921875 28.609375 65.921875 
Q 23.96875 65.921875 18.8125 64.3125 
Q 13.671875 62.703125 7.8125 59.421875 
L 7.8125 69.390625 
Q 13.765625 71.78125 18.9375 73 
Q 24.125 74.21875 28.421875 74.21875 
Q 39.75 74.21875 46.484375 68.546875 
Q 53.21875 62.890625 53.21875 53.421875 
Q 53.21875 48.921875 51.53125 44.890625 
Q 49.859375 40.875 45.40625 35.40625 
Q 44.1875 33.984375 37.640625 27.21875 
Q 31.109375 20.453125 19.1875 8.296875 
z
" id="DejaVuSans-32"/>
      </defs>
      <g transform="translate(50.235417 257.758438)scale(0.1 -0.1)">
       <use xlink:href="#DejaVuSans-32"/>
      </g>
     </g>
    </g>
    <g id="xtick_3">
     <g id="line2d_5">
      <path clip-path="url(#peeb8858773)" d="M 65.17 243.16 
L 65.17 14.76 
" style="fill:none;stroke:#b0b0b0;stroke-linecap:square;stroke-width:0.8;"/>
     </g>
     <g id="line2d_6">
      <g>
       <use style="stroke:#000000;stroke-width:0.8;" x="65.17" xlink:href="#m6a1d204011" y="243.16"/>
      </g>
     </g>
     <g id="text_3">
      <!-- 4 -->
      <defs>
       <path d="M 37.796875 64.3125 
L 12.890625 25.390625 
L 37.796875 25.390625 
z
M 35.203125 72.90625 
L 47.609375 72.90625 
L 47.609375 25.390625 
L 58.015625 25.390625 
L 58.015625 17.1875 
L 47.609375 17.1875 
L 47.609375 0 
L 37.796875 0 
L 37.796875 17.1875 
L 4.890625 17.1875 
L 4.890625 26.703125 
z
" id="DejaVuSans-34"/>
      </defs>
      <g transform="translate(61.98875 257.758438)scale(0.1 -0.1)">
       <use xlink:href="#DejaVuSans-34"/>
      </g>
     </g>
    </g>
    <g id="xtick_4">
     <g id="line2d_7">
      <path clip-path="url(#peeb8858773)" d="M 88.676667 243.16 
L 88.676667 14.76 
" style="fill:none;stroke:#b0b0b0;stroke-linecap:square;stroke-width:0.8;"/>
     </g>
     <g id="line2d_8">
      <g>
       <use style="stroke:#000000;stroke-width:0.8;" x="88.676667" xlink:href="#m6a1d204011" y="243.16"/>
      </g>
     </g>
     <g id="text_4">
      <!-- 8 -->
      <defs>
       <path d="M 31.78125 34.625 
Q 24.75 34.625 20.71875 30.859375 
Q 16.703125 27.09375 16.703125 20.515625 
Q 16.703125 13.921875 20.71875 10.15625 
Q 24.75 6.390625 31.78125 6.390625 
Q 38.8125 6.390625 42.859375 10.171875 
Q 46.921875 13.96875 46.921875 20.515625 
Q 46.921875 27.09375 42.890625 30.859375 
Q 38.875 34.625 31.78125 34.625 
z
M 21.921875 38.8125 
Q 15.578125 40.375 12.03125 44.71875 
Q 8.5 49.078125 8.5 55.328125 
Q 8.5 64.0625 14.71875 69.140625 
Q 20.953125 74.21875 31.78125 74.21875 
Q 42.671875 74.21875 48.875 69.140625 
Q 55.078125 64.0625 55.078125 55.328125 
Q 55.078125 49.078125 51.53125 44.71875 
Q 48 40.375 41.703125 38.8125 
Q 48.828125 37.15625 52.796875 32.3125 
Q 56.78125 27.484375 56.78125 20.515625 
Q 56.78125 9.90625 50.3125 4.234375 
Q 43.84375 -1.421875 31.78125 -1.421875 
Q 19.734375 -1.421875 13.25 4.234375 
Q 6.78125 9.90625 6.78125 20.515625 
Q 6.78125 27.484375 10.78125 32.3125 
Q 14.796875 37.15625 21.921875 38.8125 
z
M 18.3125 54.390625 
Q 18.3125 48.734375 21.84375 45.5625 
Q 25.390625 42.390625 31.78125 42.390625 
Q 38.140625 42.390625 41.71875 45.5625 
Q 45.3125 48.734375 45.3125 54.390625 
Q 45.3125 60.0625 41.71875 63.234375 
Q 38.140625 66.40625 31.78125 66.40625 
Q 25.390625 66.40625 21.84375 63.234375 
Q 18.3125 60.0625 18.3125 54.390625 
z
" id="DejaVuSans-38"/>
      </defs>
      <g transform="translate(85.495417 257.758438)scale(0.1 -0.1)">
       <use xlink:href="#DejaVuSans-38"/>
      </g>
     </g>
    </g>
    <g id="xtick_5">
     <g id="line2d_9">
      <path clip-path="url(#peeb8858773)" d="M 135.69 243.16 
L 135.69 14.76 
" style="fill:none;stroke:#b0b0b0;stroke-linecap:square;stroke-width:0.8;"/>
     </g>
     <g id="line2d_10">
      <g>
       <use style="stroke:#000000;stroke-width:0.8;" x="135.69" xlink:href="#m6a1d204011" y="243.16"/>
      </g>
     </g>
     <g id="text_5">
      <!-- 16 -->
      <defs>
       <path d="M 33.015625 40.375 
Q 26.375 40.375 22.484375 35.828125 
Q 18.609375 31.296875 18.609375 23.390625 
Q 18.609375 15.53125 22.484375 10.953125 
Q 26.375 6.390625 33.015625 6.390625 
Q 39.65625 6.390625 43.53125 10.953125 
Q 47.40625 15.53125 47.40625 23.390625 
Q 47.40625 31.296875 43.53125 35.828125 
Q 39.65625 40.375 33.015625 40.375 
z
M 52.59375 71.296875 
L 52.59375 62.3125 
Q 48.875 64.0625 45.09375 64.984375 
Q 41.3125 65.921875 37.59375 65.921875 
Q 27.828125 65.921875 22.671875 59.328125 
Q 17.53125 52.734375 16.796875 39.40625 
Q 19.671875 43.65625 24.015625 45.921875 
Q 28.375 48.1875 33.59375 48.1875 
Q 44.578125 48.1875 50.953125 41.515625 
Q 57.328125 34.859375 57.328125 23.390625 
Q 57.328125 12.15625 50.6875 5.359375 
Q 44.046875 -1.421875 33.015625 -1.421875 
Q 20.359375 -1.421875 13.671875 8.265625 
Q 6.984375 17.96875 6.984375 36.375 
Q 6.984375 53.65625 15.1875 63.9375 
Q 23.390625 74.21875 37.203125 74.21875 
Q 40.921875 74.21875 44.703125 73.484375 
Q 48.484375 72.75 52.59375 71.296875 
z
" id="DejaVuSans-36"/>
      </defs>
      <g transform="translate(129.3275 257.758438)scale(0.1 -0.1)">
       <use xlink:href="#DejaVuSans-31"/>
       <use x="63.623047" xlink:href="#DejaVuSans-36"/>
      </g>
     </g>
    </g>
    <g id="xtick_6">
     <g id="line2d_11">
      <path clip-path="url(#peeb8858773)" d="M 170.95 243.16 
L 170.95 14.76 
" style="fill:none;stroke:#b0b0b0;stroke-linecap:square;stroke-width:0.8;"/>
     </g>
     <g id="line2d_12">
      <g>
       <use style="stroke:#000000;stroke-width:0.8;" x="170.95" xlink:href="#m6a1d204011" y="243.16"/>
      </g>
     </g>
     <g id="text_6">
      <!-- 22 -->
      <g transform="translate(164.5875 257.758438)scale(0.1 -0.1)">
       <use xlink:href="#DejaVuSans-32"/>
       <use x="63.623047" xlink:href="#DejaVuSans-32"/>
      </g>
     </g>
    </g>
    <g id="xtick_7">
     <g id="line2d_13">
      <path clip-path="url(#peeb8858773)" d="M 300.236667 243.16 
L 300.236667 14.76 
" style="fill:none;stroke:#b0b0b0;stroke-linecap:square;stroke-width:0.8;"/>
     </g>
     <g id="line2d_14">
      <g>
       <use style="stroke:#000000;stroke-width:0.8;" x="300.236667" xlink:href="#m6a1d204011" y="243.16"/>
      </g>
     </g>
     <g id="text_7">
      <!-- 44 -->
      <g transform="translate(293.874167 257.758438)scale(0.1 -0.1)">
       <use xlink:href="#DejaVuSans-34"/>
       <use x="63.623047" xlink:href="#DejaVuSans-34"/>
      </g>
     </g>
    </g>
    <g id="xtick_8">
     <g id="line2d_15">
      <path clip-path="url(#peeb8858773)" d="M 558.81 243.16 
L 558.81 14.76 
" style="fill:none;stroke:#b0b0b0;stroke-linecap:square;stroke-width:0.8;"/>
     </g>
     <g id="line2d_16">
      <g>
       <use style="stroke:#000000;stroke-width:0.8;" x="558.81" xlink:href="#m6a1d204011" y="243.16"/>
      </g>
     </g>
     <g id="text_8">
      <!-- 88 -->
      <g transform="translate(552.4475 257.758438)scale(0.1 -0.1)">
       <use xlink:href="#DejaVuSans-38"/>
       <use x="63.623047" xlink:href="#DejaVuSans-38"/>
      </g>
     </g>
    </g>
    <g id="text_9">
     <!-- Number of Threads -->
     <defs>
      <path d="M 9.8125 72.90625 
L 23.09375 72.90625 
L 55.421875 11.921875 
L 55.421875 72.90625 
L 64.984375 72.90625 
L 64.984375 0 
L 51.703125 0 
L 19.390625 60.984375 
L 19.390625 0 
L 9.8125 0 
z
" id="DejaVuSans-4e"/>
      <path d="M 8.5 21.578125 
L 8.5 54.6875 
L 17.484375 54.6875 
L 17.484375 21.921875 
Q 17.484375 14.15625 20.5 10.265625 
Q 23.53125 6.390625 29.59375 6.390625 
Q 36.859375 6.390625 41.078125 11.03125 
Q 45.3125 15.671875 45.3125 23.6875 
L 45.3125 54.6875 
L 54.296875 54.6875 
L 54.296875 0 
L 45.3125 0 
L 45.3125 8.40625 
Q 42.046875 3.421875 37.71875 1 
Q 33.40625 -1.421875 27.6875 -1.421875 
Q 18.265625 -1.421875 13.375 4.4375 
Q 8.5 10.296875 8.5 21.578125 
z
M 31.109375 56 
z
" id="DejaVuSans-75"/>
      <path d="M 52 44.1875 
Q 55.375 50.25 60.0625 53.125 
Q 64.75 56 71.09375 56 
Q 79.640625 56 84.28125 50.015625 
Q 88.921875 44.046875 88.921875 33.015625 
L 88.921875 0 
L 79.890625 0 
L 79.890625 32.71875 
Q 79.890625 40.578125 77.09375 44.375 
Q 74.3125 48.1875 68.609375 48.1875 
Q 61.625 48.1875 57.5625 43.546875 
Q 53.515625 38.921875 53.515625 30.90625 
L 53.515625 0 
L 44.484375 0 
L 44.484375 32.71875 
Q 44.484375 40.625 41.703125 44.40625 
Q 38.921875 48.1875 33.109375 48.1875 
Q 26.21875 48.1875 22.15625 43.53125 
Q 18.109375 38.875 18.109375 30.90625 
L 18.109375 0 
L 9.078125 0 
L 9.078125 54.6875 
L 18.109375 54.6875 
L 18.109375 46.1875 
Q 21.1875 51.21875 25.484375 53.609375 
Q 29.78125 56 35.6875 56 
Q 41.65625 56 45.828125 52.96875 
Q 50 49.953125 52 44.1875 
z
" id="DejaVuSans-6d"/>
      <path d="M 48.6875 27.296875 
Q 48.6875 37.203125 44.609375 42.84375 
Q 40.53125 48.484375 33.40625 48.484375 
Q 26.265625 48.484375 22.1875 42.84375 
Q 18.109375 37.203125 18.109375 27.296875 
Q 18.109375 17.390625 22.1875 11.75 
Q 26.265625 6.109375 33.40625 6.109375 
Q 40.53125 6.109375 44.609375 11.75 
Q 48.6875 17.390625 48.6875 27.296875 
z
M 18.109375 46.390625 
Q 20.953125 51.265625 25.265625 53.625 
Q 29.59375 56 35.59375 56 
Q 45.5625 56 51.78125 48.09375 
Q 58.015625 40.1875 58.015625 27.296875 
Q 58.015625 14.40625 51.78125 6.484375 
Q 45.5625 -1.421875 35.59375 -1.421875 
Q 29.59375 -1.421875 25.265625 0.953125 
Q 20.953125 3.328125 18.109375 8.203125 
L 18.109375 0 
L 9.078125 0 
L 9.078125 75.984375 
L 18.109375 75.984375 
z
" id="DejaVuSans-62"/>
      <path d="M 56.203125 29.59375 
L 56.203125 25.203125 
L 14.890625 25.203125 
Q 15.484375 15.921875 20.484375 11.0625 
Q 25.484375 6.203125 34.421875 6.203125 
Q 39.59375 6.203125 44.453125 7.46875 
Q 49.3125 8.734375 54.109375 11.28125 
L 54.109375 2.78125 
Q 49.265625 0.734375 44.1875 -0.34375 
Q 39.109375 -1.421875 33.890625 -1.421875 
Q 20.796875 -1.421875 13.15625 6.1875 
Q 5.515625 13.8125 5.515625 26.8125 
Q 5.515625 40.234375 12.765625 48.109375 
Q 20.015625 56 32.328125 56 
Q 43.359375 56 49.78125 48.890625 
Q 56.203125 41.796875 56.203125 29.59375 
z
M 47.21875 32.234375 
Q 47.125 39.59375 43.09375 43.984375 
Q 39.0625 48.390625 32.421875 48.390625 
Q 24.90625 48.390625 20.390625 44.140625 
Q 15.875 39.890625 15.1875 32.171875 
z
" id="DejaVuSans-65"/>
      <path d="M 41.109375 46.296875 
Q 39.59375 47.171875 37.8125 47.578125 
Q 36.03125 48 33.890625 48 
Q 26.265625 48 22.1875 43.046875 
Q 18.109375 38.09375 18.109375 28.8125 
L 18.109375 0 
L 9.078125 0 
L 9.078125 54.6875 
L 18.109375 54.6875 
L 18.109375 46.1875 
Q 20.953125 51.171875 25.484375 53.578125 
Q 30.03125 56 36.53125 56 
Q 37.453125 56 38.578125 55.875 
Q 39.703125 55.765625 41.0625 55.515625 
z
" id="DejaVuSans-72"/>
      <path id="DejaVuSans-20"/>
      <path d="M 30.609375 48.390625 
Q 23.390625 48.390625 19.1875 42.75 
Q 14.984375 37.109375 14.984375 27.296875 
Q 14.984375 17.484375 19.15625 11.84375 
Q 23.34375 6.203125 30.609375 6.203125 
Q 37.796875 6.203125 41.984375 11.859375 
Q 46.1875 17.53125 46.1875 27.296875 
Q 46.1875 37.015625 41.984375 42.703125 
Q 37.796875 48.390625 30.609375 48.390625 
z
M 30.609375 56 
Q 42.328125 56 49.015625 48.375 
Q 55.71875 40.765625 55.71875 27.296875 
Q 55.71875 13.875 49.015625 6.21875 
Q 42.328125 -1.421875 30.609375 -1.421875 
Q 18.84375 -1.421875 12.171875 6.21875 
Q 5.515625 13.875 5.515625 27.296875 
Q 5.515625 40.765625 12.171875 48.375 
Q 18.84375 56 30.609375 56 
z
" id="DejaVuSans-6f"/>
      <path d="M 37.109375 75.984375 
L 37.109375 68.5 
L 28.515625 68.5 
Q 23.6875 68.5 21.796875 66.546875 
Q 19.921875 64.59375 19.921875 59.515625 
L 19.921875 54.6875 
L 34.71875 54.6875 
L 34.71875 47.703125 
L 19.921875 47.703125 
L 19.921875 0 
L 10.890625 0 
L 10.890625 47.703125 
L 2.296875 47.703125 
L 2.296875 54.6875 
L 10.890625 54.6875 
L 10.890625 58.5 
Q 10.890625 67.625 15.140625 71.796875 
Q 19.390625 75.984375 28.609375 75.984375 
z
" id="DejaVuSans-66"/>
      <path d="M -0.296875 72.90625 
L 61.375 72.90625 
L 61.375 64.59375 
L 35.5 64.59375 
L 35.5 0 
L 25.59375 0 
L 25.59375 64.59375 
L -0.296875 64.59375 
z
" id="DejaVuSans-54"/>
      <path d="M 54.890625 33.015625 
L 54.890625 0 
L 45.90625 0 
L 45.90625 32.71875 
Q 45.90625 40.484375 42.875 44.328125 
Q 39.84375 48.1875 33.796875 48.1875 
Q 26.515625 48.1875 22.3125 43.546875 
Q 18.109375 38.921875 18.109375 30.90625 
L 18.109375 0 
L 9.078125 0 
L 9.078125 75.984375 
L 18.109375 75.984375 
L 18.109375 46.1875 
Q 21.34375 51.125 25.703125 53.5625 
Q 30.078125 56 35.796875 56 
Q 45.21875 56 50.046875 50.171875 
Q 54.890625 44.34375 54.890625 33.015625 
z
" id="DejaVuSans-68"/>
      <path d="M 34.28125 27.484375 
Q 23.390625 27.484375 19.1875 25 
Q 14.984375 22.515625 14.984375 16.5 
Q 14.984375 11.71875 18.140625 8.90625 
Q 21.296875 6.109375 26.703125 6.109375 
Q 34.1875 6.109375 38.703125 11.40625 
Q 43.21875 16.703125 43.21875 25.484375 
L 43.21875 27.484375 
z
M 52.203125 31.203125 
L 52.203125 0 
L 43.21875 0 
L 43.21875 8.296875 
Q 40.140625 3.328125 35.546875 0.953125 
Q 30.953125 -1.421875 24.3125 -1.421875 
Q 15.921875 -1.421875 10.953125 3.296875 
Q 6 8.015625 6 15.921875 
Q 6 25.140625 12.171875 29.828125 
Q 18.359375 34.515625 30.609375 34.515625 
L 43.21875 34.515625 
L 43.21875 35.40625 
Q 43.21875 41.609375 39.140625 45 
Q 35.0625 48.390625 27.6875 48.390625 
Q 23 48.390625 18.546875 47.265625 
Q 14.109375 46.140625 10.015625 43.890625 
L 10.015625 52.203125 
Q 14.9375 54.109375 19.578125 55.046875 
Q 24.21875 56 28.609375 56 
Q 40.484375 56 46.34375 49.84375 
Q 52.203125 43.703125 52.203125 31.203125 
z
" id="DejaVuSans-61"/>
      <path d="M 45.40625 46.390625 
L 45.40625 75.984375 
L 54.390625 75.984375 
L 54.390625 0 
L 45.40625 0 
L 45.40625 8.203125 
Q 42.578125 3.328125 38.25 0.953125 
Q 33.9375 -1.421875 27.875 -1.421875 
Q 17.96875 -1.421875 11.734375 6.484375 
Q 5.515625 14.40625 5.515625 27.296875 
Q 5.515625 40.1875 11.734375 48.09375 
Q 17.96875 56 27.875 56 
Q 33.9375 56 38.25 53.625 
Q 42.578125 51.265625 45.40625 46.390625 
z
M 14.796875 27.296875 
Q 14.796875 17.390625 18.875 11.75 
Q 22.953125 6.109375 30.078125 6.109375 
Q 37.203125 6.109375 41.296875 11.75 
Q 45.40625 17.390625 45.40625 27.296875 
Q 45.40625 37.203125 41.296875 42.84375 
Q 37.203125 48.484375 30.078125 48.484375 
Q 22.953125 48.484375 18.875 42.84375 
Q 14.796875 37.203125 14.796875 27.296875 
z
" id="DejaVuSans-64"/>
      <path d="M 44.28125 53.078125 
L 44.28125 44.578125 
Q 40.484375 46.53125 36.375 47.5 
Q 32.28125 48.484375 27.875 48.484375 
Q 21.1875 48.484375 17.84375 46.4375 
Q 14.5 44.390625 14.5 40.28125 
Q 14.5 37.15625 16.890625 35.375 
Q 19.28125 33.59375 26.515625 31.984375 
L 29.59375 31.296875 
Q 39.15625 29.25 43.1875 25.515625 
Q 47.21875 21.78125 47.21875 15.09375 
Q 47.21875 7.46875 41.1875 3.015625 
Q 35.15625 -1.421875 24.609375 -1.421875 
Q 20.21875 -1.421875 15.453125 -0.5625 
Q 10.6875 0.296875 5.421875 2 
L 5.421875 11.28125 
Q 10.40625 8.6875 15.234375 7.390625 
Q 20.0625 6.109375 24.8125 6.109375 
Q 31.15625 6.109375 34.5625 8.28125 
Q 37.984375 10.453125 37.984375 14.40625 
Q 37.984375 18.0625 35.515625 20.015625 
Q 33.0625 21.96875 24.703125 23.78125 
L 21.578125 24.515625 
Q 13.234375 26.265625 9.515625 29.90625 
Q 5.8125 33.546875 5.8125 39.890625 
Q 5.8125 47.609375 11.28125 51.796875 
Q 16.75 56 26.8125 56 
Q 31.78125 56 36.171875 55.265625 
Q 40.578125 54.546875 44.28125 53.078125 
z
" id="DejaVuSans-73"/>
     </defs>
     <g transform="translate(245.239375 272.95625)scale(0.12 -0.12)">
      <use xlink:href="#DejaVuSans-4e"/>
      <use x="74.804688" xlink:href="#DejaVuSans-75"/>
      <use x="138.183594" xlink:href="#DejaVuSans-6d"/>
      <use x="235.595703" xlink:href="#DejaVuSans-62"/>
      <use x="299.072266" xlink:href="#DejaVuSans-65"/>
      <use x="360.595703" xlink:href="#DejaVuSans-72"/>
      <use x="401.708984" xlink:href="#DejaVuSans-20"/>
      <use x="433.496094" xlink:href="#DejaVuSans-6f"/>
      <use x="494.677734" xlink:href="#DejaVuSans-66"/>
      <use x="529.882812" xlink:href="#DejaVuSans-20"/>
      <use x="561.669922" xlink:href="#DejaVuSans-54"/>
      <use x="622.753906" xlink:href="#DejaVuSans-68"/>
      <use x="686.132812" xlink:href="#DejaVuSans-72"/>
      <use x="727.214844" xlink:href="#DejaVuSans-65"/>
      <use x="788.738281" xlink:href="#DejaVuSans-61"/>
      <use x="850.017578" xlink:href="#DejaVuSans-64"/>
      <use x="913.494141" xlink:href="#DejaVuSans-73"/>
     </g>
    </g>
   </g>
   <g id="matplotlib.axis_2">
    <g id="ytick_1">
     <g id="line2d_17">
      <path clip-path="url(#peeb8858773)" d="M 47.54 243.16 
L 558.81 243.16 
" style="fill:none;stroke:#b0b0b0;stroke-linecap:square;stroke-width:0.8;"/>
     </g>
     <g id="line2d_18">
      <defs>
       <path d="M 0 0 
L -3.5 0 
" id="m81a71e9231" style="stroke:#000000;stroke-width:0.8;"/>
      </defs>
      <g>
       <use style="stroke:#000000;stroke-width:0.8;" x="47.54" xlink:href="#m81a71e9231" y="243.16"/>
      </g>
     </g>
     <g id="text_10">
      <!-- 1 -->
      <g transform="translate(34.1775 246.959219)scale(0.1 -0.1)">
       <use xlink:href="#DejaVuSans-31"/>
      </g>
     </g>
    </g>
    <g id="ytick_2">
     <g id="line2d_19">
      <path clip-path="url(#peeb8858773)" d="M 47.54 231.138947 
L 558.81 231.138947 
" style="fill:none;stroke:#b0b0b0;stroke-linecap:square;stroke-width:0.8;"/>
     </g>
     <g id="line2d_20">
      <g>
       <use style="stroke:#000000;stroke-width:0.8;" x="47.54" xlink:href="#m81a71e9231" y="231.138947"/>
      </g>
     </g>
     <g id="text_11">
      <!-- 2 -->
      <g transform="translate(34.1775 234.938166)scale(0.1 -0.1)">
       <use xlink:href="#DejaVuSans-32"/>
      </g>
     </g>
    </g>
    <g id="ytick_3">
     <g id="line2d_21">
      <path clip-path="url(#peeb8858773)" d="M 47.54 207.096842 
L 558.81 207.096842 
" style="fill:none;stroke:#b0b0b0;stroke-linecap:square;stroke-width:0.8;"/>
     </g>
     <g id="line2d_22">
      <g>
       <use style="stroke:#000000;stroke-width:0.8;" x="47.54" xlink:href="#m81a71e9231" y="207.096842"/>
      </g>
     </g>
     <g id="text_12">
      <!-- 4 -->
      <g transform="translate(34.1775 210.896061)scale(0.1 -0.1)">
       <use xlink:href="#DejaVuSans-34"/>
      </g>
     </g>
    </g>
    <g id="ytick_4">
     <g id="line2d_23">
      <path clip-path="url(#peeb8858773)" d="M 47.54 183.054737 
L 558.81 183.054737 
" style="fill:none;stroke:#b0b0b0;stroke-linecap:square;stroke-width:0.8;"/>
     </g>
     <g id="line2d_24">
      <g>
       <use style="stroke:#000000;stroke-width:0.8;" x="47.54" xlink:href="#m81a71e9231" y="183.054737"/>
      </g>
     </g>
     <g id="text_13">
      <!-- 6 -->
      <g transform="translate(34.1775 186.853956)scale(0.1 -0.1)">
       <use xlink:href="#DejaVuSans-36"/>
      </g>
     </g>
    </g>
    <g id="ytick_5">
     <g id="line2d_25">
      <path clip-path="url(#peeb8858773)" d="M 47.54 159.012632 
L 558.81 159.012632 
" style="fill:none;stroke:#b0b0b0;stroke-linecap:square;stroke-width:0.8;"/>
     </g>
     <g id="line2d_26">
      <g>
       <use style="stroke:#000000;stroke-width:0.8;" x="47.54" xlink:href="#m81a71e9231" y="159.012632"/>
      </g>
     </g>
     <g id="text_14">
      <!-- 8 -->
      <g transform="translate(34.1775 162.81185)scale(0.1 -0.1)">
       <use xlink:href="#DejaVuSans-38"/>
      </g>
     </g>
    </g>
    <g id="ytick_6">
     <g id="line2d_27">
      <path clip-path="url(#peeb8858773)" d="M 47.54 134.970526 
L 558.81 134.970526 
" style="fill:none;stroke:#b0b0b0;stroke-linecap:square;stroke-width:0.8;"/>
     </g>
     <g id="line2d_28">
      <g>
       <use style="stroke:#000000;stroke-width:0.8;" x="47.54" xlink:href="#m81a71e9231" y="134.970526"/>
      </g>
     </g>
     <g id="text_15">
      <!-- 10 -->
      <defs>
       <path d="M 31.78125 66.40625 
Q 24.171875 66.40625 20.328125 58.90625 
Q 16.5 51.421875 16.5 36.375 
Q 16.5 21.390625 20.328125 13.890625 
Q 24.171875 6.390625 31.78125 6.390625 
Q 39.453125 6.390625 43.28125 13.890625 
Q 47.125 21.390625 47.125 36.375 
Q 47.125 51.421875 43.28125 58.90625 
Q 39.453125 66.40625 31.78125 66.40625 
z
M 31.78125 74.21875 
Q 44.046875 74.21875 50.515625 64.515625 
Q 56.984375 54.828125 56.984375 36.375 
Q 56.984375 17.96875 50.515625 8.265625 
Q 44.046875 -1.421875 31.78125 -1.421875 
Q 19.53125 -1.421875 13.0625 8.265625 
Q 6.59375 17.96875 6.59375 36.375 
Q 6.59375 54.828125 13.0625 64.515625 
Q 19.53125 74.21875 31.78125 74.21875 
z
" id="DejaVuSans-30"/>
      </defs>
      <g transform="translate(27.815 138.769745)scale(0.1 -0.1)">
       <use xlink:href="#DejaVuSans-31"/>
       <use x="63.623047" xlink:href="#DejaVuSans-30"/>
      </g>
     </g>
    </g>
    <g id="ytick_7">
     <g id="line2d_29">
      <path clip-path="url(#peeb8858773)" d="M 47.54 110.928421 
L 558.81 110.928421 
" style="fill:none;stroke:#b0b0b0;stroke-linecap:square;stroke-width:0.8;"/>
     </g>
     <g id="line2d_30">
      <g>
       <use style="stroke:#000000;stroke-width:0.8;" x="47.54" xlink:href="#m81a71e9231" y="110.928421"/>
      </g>
     </g>
     <g id="text_16">
      <!-- 12 -->
      <g transform="translate(27.815 114.72764)scale(0.1 -0.1)">
       <use xlink:href="#DejaVuSans-31"/>
       <use x="63.623047" xlink:href="#DejaVuSans-32"/>
      </g>
     </g>
    </g>
    <g id="ytick_8">
     <g id="line2d_31">
      <path clip-path="url(#peeb8858773)" d="M 47.54 86.886316 
L 558.81 86.886316 
" style="fill:none;stroke:#b0b0b0;stroke-linecap:square;stroke-width:0.8;"/>
     </g>
     <g id="line2d_32">
      <g>
       <use style="stroke:#000000;stroke-width:0.8;" x="47.54" xlink:href="#m81a71e9231" y="86.886316"/>
      </g>
     </g>
     <g id="text_17">
      <!-- 14 -->
      <g transform="translate(27.815 90.685535)scale(0.1 -0.1)">
       <use xlink:href="#DejaVuSans-31"/>
       <use x="63.623047" xlink:href="#DejaVuSans-34"/>
      </g>
     </g>
    </g>
    <g id="ytick_9">
     <g id="line2d_33">
      <path clip-path="url(#peeb8858773)" d="M 47.54 62.844211 
L 558.81 62.844211 
" style="fill:none;stroke:#b0b0b0;stroke-linecap:square;stroke-width:0.8;"/>
     </g>
     <g id="line2d_34">
      <g>
       <use style="stroke:#000000;stroke-width:0.8;" x="47.54" xlink:href="#m81a71e9231" y="62.844211"/>
      </g>
     </g>
     <g id="text_18">
      <!-- 16 -->
      <g transform="translate(27.815 66.643429)scale(0.1 -0.1)">
       <use xlink:href="#DejaVuSans-31"/>
       <use x="63.623047" xlink:href="#DejaVuSans-36"/>
      </g>
     </g>
    </g>
    <g id="ytick_10">
     <g id="line2d_35">
      <path clip-path="url(#peeb8858773)" d="M 47.54 38.802105 
L 558.81 38.802105 
" style="fill:none;stroke:#b0b0b0;stroke-linecap:square;stroke-width:0.8;"/>
     </g>
     <g id="line2d_36">
      <g>
       <use style="stroke:#000000;stroke-width:0.8;" x="47.54" xlink:href="#m81a71e9231" y="38.802105"/>
      </g>
     </g>
     <g id="text_19">
      <!-- 18 -->
      <g transform="translate(27.815 42.601324)scale(0.1 -0.1)">
       <use xlink:href="#DejaVuSans-31"/>
       <use x="63.623047" xlink:href="#DejaVuSans-38"/>
      </g>
     </g>
    </g>
    <g id="ytick_11">
     <g id="line2d_37">
      <path clip-path="url(#peeb8858773)" d="M 47.54 14.76 
L 558.81 14.76 
" style="fill:none;stroke:#b0b0b0;stroke-linecap:square;stroke-width:0.8;"/>
     </g>
     <g id="line2d_38">
      <g>
       <use style="stroke:#000000;stroke-width:0.8;" x="47.54" xlink:href="#m81a71e9231" y="14.76"/>
      </g>
     </g>
     <g id="text_20">
      <!-- 20 -->
      <g transform="translate(27.815 18.559219)scale(0.1 -0.1)">
       <use xlink:href="#DejaVuSans-32"/>
       <use x="63.623047" xlink:href="#DejaVuSans-30"/>
      </g>
     </g>
    </g>
    <g id="text_21">
     <!-- VecAdd Speedup -->
     <defs>
      <path d="M 28.609375 0 
L 0.78125 72.90625 
L 11.078125 72.90625 
L 34.1875 11.53125 
L 57.328125 72.90625 
L 67.578125 72.90625 
L 39.796875 0 
z
" id="DejaVuSans-56"/>
      <path d="M 48.78125 52.59375 
L 48.78125 44.1875 
Q 44.96875 46.296875 41.140625 47.34375 
Q 37.3125 48.390625 33.40625 48.390625 
Q 24.65625 48.390625 19.8125 42.84375 
Q 14.984375 37.3125 14.984375 27.296875 
Q 14.984375 17.28125 19.8125 11.734375 
Q 24.65625 6.203125 33.40625 6.203125 
Q 37.3125 6.203125 41.140625 7.25 
Q 44.96875 8.296875 48.78125 10.40625 
L 48.78125 2.09375 
Q 45.015625 0.34375 40.984375 -0.53125 
Q 36.96875 -1.421875 32.421875 -1.421875 
Q 20.0625 -1.421875 12.78125 6.34375 
Q 5.515625 14.109375 5.515625 27.296875 
Q 5.515625 40.671875 12.859375 48.328125 
Q 20.21875 56 33.015625 56 
Q 37.15625 56 41.109375 55.140625 
Q 45.0625 54.296875 48.78125 52.59375 
z
" id="DejaVuSans-63"/>
      <path d="M 34.1875 63.1875 
L 20.796875 26.90625 
L 47.609375 26.90625 
z
M 28.609375 72.90625 
L 39.796875 72.90625 
L 67.578125 0 
L 57.328125 0 
L 50.6875 18.703125 
L 17.828125 18.703125 
L 11.1875 0 
L 0.78125 0 
z
" id="DejaVuSans-41"/>
      <path d="M 53.515625 70.515625 
L 53.515625 60.890625 
Q 47.90625 63.578125 42.921875 64.890625 
Q 37.9375 66.21875 33.296875 66.21875 
Q 25.25 66.21875 20.875 63.09375 
Q 16.5 59.96875 16.5 54.203125 
Q 16.5 49.359375 19.40625 46.890625 
Q 22.3125 44.4375 30.421875 42.921875 
L 36.375 41.703125 
Q 47.40625 39.59375 52.65625 34.296875 
Q 57.90625 29 57.90625 20.125 
Q 57.90625 9.515625 50.796875 4.046875 
Q 43.703125 -1.421875 29.984375 -1.421875 
Q 24.8125 -1.421875 18.96875 -0.25 
Q 13.140625 0.921875 6.890625 3.21875 
L 6.890625 13.375 
Q 12.890625 10.015625 18.65625 8.296875 
Q 24.421875 6.59375 29.984375 6.59375 
Q 38.421875 6.59375 43.015625 9.90625 
Q 47.609375 13.234375 47.609375 19.390625 
Q 47.609375 24.75 44.3125 27.78125 
Q 41.015625 30.8125 33.5 32.328125 
L 27.484375 33.5 
Q 16.453125 35.6875 11.515625 40.375 
Q 6.59375 45.0625 6.59375 53.421875 
Q 6.59375 63.09375 13.40625 68.65625 
Q 20.21875 74.21875 32.171875 74.21875 
Q 37.3125 74.21875 42.625 73.28125 
Q 47.953125 72.359375 53.515625 70.515625 
z
" id="DejaVuSans-53"/>
      <path d="M 18.109375 8.203125 
L 18.109375 -20.796875 
L 9.078125 -20.796875 
L 9.078125 54.6875 
L 18.109375 54.6875 
L 18.109375 46.390625 
Q 20.953125 51.265625 25.265625 53.625 
Q 29.59375 56 35.59375 56 
Q 45.5625 56 51.78125 48.09375 
Q 58.015625 40.1875 58.015625 27.296875 
Q 58.015625 14.40625 51.78125 6.484375 
Q 45.5625 -1.421875 35.59375 -1.421875 
Q 29.59375 -1.421875 25.265625 0.953125 
Q 20.953125 3.328125 18.109375 8.203125 
z
M 48.6875 27.296875 
Q 48.6875 37.203125 44.609375 42.84375 
Q 40.53125 48.484375 33.40625 48.484375 
Q 26.265625 48.484375 22.1875 42.84375 
Q 18.109375 37.203125 18.109375 27.296875 
Q 18.109375 17.390625 22.1875 11.75 
Q 26.265625 6.109375 33.40625 6.109375 
Q 40.53125 6.109375 44.609375 11.75 
Q 48.6875 17.390625 48.6875 27.296875 
z
" id="DejaVuSans-70"/>
     </defs>
     <g transform="translate(21.319375 180.099687)rotate(-90)scale(0.12 -0.12)">
      <use xlink:href="#DejaVuSans-56"/>
      <use x="68.298828" xlink:href="#DejaVuSans-65"/>
      <use x="129.822266" xlink:href="#DejaVuSans-63"/>
      <use x="184.802734" xlink:href="#DejaVuSans-41"/>
      <use x="253.195312" xlink:href="#DejaVuSans-64"/>
      <use x="316.671875" xlink:href="#DejaVuSans-64"/>
      <use x="380.148438" xlink:href="#DejaVuSans-20"/>
      <use x="411.935547" xlink:href="#DejaVuSans-53"/>
      <use x="475.412109" xlink:href="#DejaVuSans-70"/>
      <use x="538.888672" xlink:href="#DejaVuSans-65"/>
      <use x="600.412109" xlink:href="#DejaVuSans-65"/>
      <use x="661.935547" xlink:href="#DejaVuSans-64"/>
      <use x="725.412109" xlink:href="#DejaVuSans-75"/>
      <use x="788.791016" xlink:href="#DejaVuSans-70"/>
     </g>
    </g>
   </g>
   <g id="line2d_39">
    <path clip-path="url(#peeb8858773)" d="M 47.54 243.16 
L 53.416667 231.138947 
L 65.17 207.096842 
L 88.676667 159.012632 
L 135.69 62.844211 
L 166.901172 -1 
" style="fill:none;stroke:#000000;stroke-linecap:square;stroke-width:1.5;"/>
   </g>
   <g id="line2d_40">
    <path clip-path="url(#peeb8858773)" d="M 47.54 243.283215 
L 53.416667 231.35038 
L 65.17 209.185091 
L 88.676667 165.551418 
L 135.69 84.794247 
L 170.95 42.817012 
L 300.236667 19.955028 
L 558.81 29.28596 
" style="fill:none;stroke:#000000;stroke-linecap:square;stroke-width:1.5;"/>
    <defs>
     <path d="M 0 -3 
L -2.85317 -0.927051 
L -1.763356 2.427051 
L 1.763356 2.427051 
L 2.85317 -0.927051 
z
" id="ma5fc4349c6" style="stroke:#000000;stroke-linejoin:miter;"/>
    </defs>
    <g clip-path="url(#peeb8858773)">
     <use style="stroke:#000000;stroke-linejoin:miter;" x="47.54" xlink:href="#ma5fc4349c6" y="243.283215"/>
     <use style="stroke:#000000;stroke-linejoin:miter;" x="53.416667" xlink:href="#ma5fc4349c6" y="231.35038"/>
     <use style="stroke:#000000;stroke-linejoin:miter;" x="65.17" xlink:href="#ma5fc4349c6" y="209.185091"/>
     <use style="stroke:#000000;stroke-linejoin:miter;" x="88.676667" xlink:href="#ma5fc4349c6" y="165.551418"/>
     <use style="stroke:#000000;stroke-linejoin:miter;" x="135.69" xlink:href="#ma5fc4349c6" y="84.794247"/>
     <use style="stroke:#000000;stroke-linejoin:miter;" x="170.95" xlink:href="#ma5fc4349c6" y="42.817012"/>
     <use style="stroke:#000000;stroke-linejoin:miter;" x="300.236667" xlink:href="#ma5fc4349c6" y="19.955028"/>
     <use style="stroke:#000000;stroke-linejoin:miter;" x="558.81" xlink:href="#ma5fc4349c6" y="29.28596"/>
    </g>
   </g>
   <g id="line2d_41">
    <path clip-path="url(#peeb8858773)" d="M 47.54 243.303012 
L 53.416667 231.33772 
L 65.17 208.974127 
L 88.676667 165.797619 
L 135.69 85.372935 
L 170.95 43.297533 
L 300.236667 20.049929 
L 558.81 31.566605 
" style="fill:none;stroke:#000090;stroke-dasharray:5.55,2.4;stroke-dashoffset:0;stroke-width:1.5;"/>
    <defs>
     <path d="M 0 3 
C 0.795609 3 1.55874 2.683901 2.12132 2.12132 
C 2.683901 1.55874 3 0.795609 3 0 
C 3 -0.795609 2.683901 -1.55874 2.12132 -2.12132 
C 1.55874 -2.683901 0.795609 -3 0 -3 
C -0.795609 -3 -1.55874 -2.683901 -2.12132 -2.12132 
C -2.683901 -1.55874 -3 -0.795609 -3 0 
C -3 0.795609 -2.683901 1.55874 -2.12132 2.12132 
C -1.55874 2.683901 -0.795609 3 0 3 
z
" id="me2ebc8f850" style="stroke:#000090;"/>
    </defs>
    <g clip-path="url(#peeb8858773)">
     <use style="fill:#000090;stroke:#000090;" x="47.54" xlink:href="#me2ebc8f850" y="243.303012"/>
     <use style="fill:#000090;stroke:#000090;" x="53.416667" xlink:href="#me2ebc8f850" y="231.33772"/>
     <use style="fill:#000090;stroke:#000090;" x="65.17" xlink:href="#me2ebc8f850" y="208.974127"/>
     <use style="fill:#000090;stroke:#000090;" x="88.676667" xlink:href="#me2ebc8f850" y="165.797619"/>
     <use style="fill:#000090;stroke:#000090;" x="135.69" xlink:href="#me2ebc8f850" y="85.372935"/>
     <use style="fill:#000090;stroke:#000090;" x="170.95" xlink:href="#me2ebc8f850" y="43.297533"/>
     <use style="fill:#000090;stroke:#000090;" x="300.236667" xlink:href="#me2ebc8f850" y="20.049929"/>
     <use style="fill:#000090;stroke:#000090;" x="558.81" xlink:href="#me2ebc8f850" y="31.566605"/>
    </g>
   </g>
   <g id="line2d_42">
    <path clip-path="url(#peeb8858773)" d="M 47.54 243.28981 
L 53.416667 238.461982 
L 65.17 223.440463 
L 88.676667 194.905167 
L 135.69 150.304612 
L 170.95 138.082278 
L 300.236667 139.631537 
L 558.81 29.406123 
" style="fill:none;stroke:#1d00ff;stroke-dasharray:9.6,2.4,1.5,2.4;stroke-dashoffset:0;stroke-width:1.5;"/>
    <defs>
     <path d="M -0 3 
L 3 -3 
L -3 -3 
z
" id="mb69a627da9" style="stroke:#1d00ff;stroke-linejoin:miter;"/>
    </defs>
    <g clip-path="url(#peeb8858773)">
     <use style="fill:#1d00ff;stroke:#1d00ff;stroke-linejoin:miter;" x="47.54" xlink:href="#mb69a627da9" y="243.28981"/>
     <use style="fill:#1d00ff;stroke:#1d00ff;stroke-linejoin:miter;" x="53.416667" xlink:href="#mb69a627da9" y="238.461982"/>
     <use style="fill:#1d00ff;stroke:#1d00ff;stroke-linejoin:miter;" x="65.17" xlink:href="#mb69a627da9" y="223.440463"/>
     <use style="fill:#1d00ff;stroke:#1d00ff;stroke-linejoin:miter;" x="88.676667" xlink:href="#mb69a627da9" y="194.905167"/>
     <use style="fill:#1d00ff;stroke:#1d00ff;stroke-linejoin:miter;" x="135.69" xlink:href="#mb69a627da9" y="150.304612"/>
     <use style="fill:#1d00ff;stroke:#1d00ff;stroke-linejoin:miter;" x="170.95" xlink:href="#mb69a627da9" y="138.082278"/>
     <use style="fill:#1d00ff;stroke:#1d00ff;stroke-linejoin:miter;" x="300.236667" xlink:href="#mb69a627da9" y="139.631537"/>
     <use style="fill:#1d00ff;stroke:#1d00ff;stroke-linejoin:miter;" x="558.81" xlink:href="#mb69a627da9" y="29.406123"/>
    </g>
   </g>
   <g id="line2d_43">
    <path clip-path="url(#peeb8858773)" d="M 47.54 243.321627 
L 53.416667 232.254529 
L 65.17 210.272277 
L 88.676667 168.880528 
L 135.69 133.480137 
L 170.95 133.425872 
L 300.236667 19.813243 
L 558.81 30.56975 
" style="fill:none;stroke:#8d04fb;stroke-dasharray:1.5,2.475;stroke-dashoffset:0;stroke-width:1.5;"/>
    <defs>
     <path d="M 0 -3 
L -3 3 
L 3 3 
z
" id="mc40b27ea73" style="stroke:#8d04fb;stroke-linejoin:miter;"/>
    </defs>
    <g clip-path="url(#peeb8858773)">
     <use style="fill:#8d04fb;stroke:#8d04fb;stroke-linejoin:miter;" x="47.54" xlink:href="#mc40b27ea73" y="243.321627"/>
     <use style="fill:#8d04fb;stroke:#8d04fb;stroke-linejoin:miter;" x="53.416667" xlink:href="#mc40b27ea73" y="232.254529"/>
     <use style="fill:#8d04fb;stroke:#8d04fb;stroke-linejoin:miter;" x="65.17" xlink:href="#mc40b27ea73" y="210.272277"/>
     <use style="fill:#8d04fb;stroke:#8d04fb;stroke-linejoin:miter;" x="88.676667" xlink:href="#mc40b27ea73" y="168.880528"/>
     <use style="fill:#8d04fb;stroke:#8d04fb;stroke-linejoin:miter;" x="135.69" xlink:href="#mc40b27ea73" y="133.480137"/>
     <use style="fill:#8d04fb;stroke:#8d04fb;stroke-linejoin:miter;" x="170.95" xlink:href="#mc40b27ea73" y="133.425872"/>
     <use style="fill:#8d04fb;stroke:#8d04fb;stroke-linejoin:miter;" x="300.236667" xlink:href="#mc40b27ea73" y="19.813243"/>
     <use style="fill:#8d04fb;stroke:#8d04fb;stroke-linejoin:miter;" x="558.81" xlink:href="#mc40b27ea73" y="30.56975"/>
    </g>
   </g>
   <g id="line2d_44">
    <path clip-path="url(#peeb8858773)" d="M 47.54 243.153187 
L 53.416667 231.304187 
L 65.17 208.577952 
L 88.676667 165.319371 
L 135.69 86.503297 
L 170.95 54.483974 
L 300.236667 71.031266 
L 558.81 90.458833 
" style="fill:none;stroke:#ff4eb1;stroke-linecap:square;stroke-width:1.5;"/>
    <defs>
     <path d="M -1.14805 -2.771639 
L -2.771639 -1.14805 
L -2.771639 1.14805 
L -1.14805 2.771639 
L 1.14805 2.771639 
L 2.771639 1.14805 
L 2.771639 -1.14805 
L 1.14805 -2.771639 
z
" id="mbd56b35257" style="stroke:#ff4eb1;stroke-linejoin:miter;"/>
    </defs>
    <g clip-path="url(#peeb8858773)">
     <use style="fill:#ff4eb1;stroke:#ff4eb1;stroke-linejoin:miter;" x="47.54" xlink:href="#mbd56b35257" y="243.153187"/>
     <use style="fill:#ff4eb1;stroke:#ff4eb1;stroke-linejoin:miter;" x="53.416667" xlink:href="#mbd56b35257" y="231.304187"/>
     <use style="fill:#ff4eb1;stroke:#ff4eb1;stroke-linejoin:miter;" x="65.17" xlink:href="#mbd56b35257" y="208.577952"/>
     <use style="fill:#ff4eb1;stroke:#ff4eb1;stroke-linejoin:miter;" x="88.676667" xlink:href="#mbd56b35257" y="165.319371"/>
     <use style="fill:#ff4eb1;stroke:#ff4eb1;stroke-linejoin:miter;" x="135.69" xlink:href="#mbd56b35257" y="86.503297"/>
     <use style="fill:#ff4eb1;stroke:#ff4eb1;stroke-linejoin:miter;" x="170.95" xlink:href="#mbd56b35257" y="54.483974"/>
     <use style="fill:#ff4eb1;stroke:#ff4eb1;stroke-linejoin:miter;" x="300.236667" xlink:href="#mbd56b35257" y="71.031266"/>
     <use style="fill:#ff4eb1;stroke:#ff4eb1;stroke-linejoin:miter;" x="558.81" xlink:href="#mbd56b35257" y="90.458833"/>
    </g>
   </g>
   <g id="line2d_45">
    <path clip-path="url(#peeb8858773)" d="M 47.54 243.166473 
L 53.416667 231.259427 
L 65.17 208.744712 
L 88.676667 165.384259 
L 135.69 86.722334 
L 170.95 54.533475 
L 300.236667 69.985839 
L 558.81 92.297547 
" style="fill:none;stroke:#ff9669;stroke-dasharray:5.55,2.4;stroke-dashoffset:0;stroke-width:1.5;"/>
    <defs>
     <path d="M -0 4.242641 
L 2.545584 0 
L 0 -4.242641 
L -2.545584 -0 
z
" id="m1c94b92ffd" style="stroke:#ff9669;stroke-linejoin:miter;"/>
    </defs>
    <g clip-path="url(#peeb8858773)">
     <use style="fill:#ff9669;stroke:#ff9669;stroke-linejoin:miter;" x="47.54" xlink:href="#m1c94b92ffd" y="243.166473"/>
     <use style="fill:#ff9669;stroke:#ff9669;stroke-linejoin:miter;" x="53.416667" xlink:href="#m1c94b92ffd" y="231.259427"/>
     <use style="fill:#ff9669;stroke:#ff9669;stroke-linejoin:miter;" x="65.17" xlink:href="#m1c94b92ffd" y="208.744712"/>
     <use style="fill:#ff9669;stroke:#ff9669;stroke-linejoin:miter;" x="88.676667" xlink:href="#m1c94b92ffd" y="165.384259"/>
     <use style="fill:#ff9669;stroke:#ff9669;stroke-linejoin:miter;" x="135.69" xlink:href="#m1c94b92ffd" y="86.722334"/>
     <use style="fill:#ff9669;stroke:#ff9669;stroke-linejoin:miter;" x="170.95" xlink:href="#m1c94b92ffd" y="54.533475"/>
     <use style="fill:#ff9669;stroke:#ff9669;stroke-linejoin:miter;" x="300.236667" xlink:href="#m1c94b92ffd" y="69.985839"/>
     <use style="fill:#ff9669;stroke:#ff9669;stroke-linejoin:miter;" x="558.81" xlink:href="#m1c94b92ffd" y="92.297547"/>
    </g>
   </g>
   <g id="line2d_46">
    <path clip-path="url(#peeb8858773)" d="M 47.54 243.16 
L 53.416667 231.267338 
L 65.17 208.813307 
L 88.676667 165.579595 
L 135.69 86.138919 
L 170.95 54.547908 
L 300.236667 69.30616 
L 558.81 107.390906 
" style="fill:none;stroke:#ffe01f;stroke-dasharray:9.6,2.4,1.5,2.4;stroke-dashoffset:0;stroke-width:1.5;"/>
    <defs>
     <path d="M -3 3 
L 3 -3 
M -3 -3 
L 3 3 
" id="m24ee4eda5f" style="stroke:#ffe01f;"/>
    </defs>
    <g clip-path="url(#peeb8858773)">
     <use style="fill:#ffe01f;stroke:#ffe01f;" x="47.54" xlink:href="#m24ee4eda5f" y="243.16"/>
     <use style="fill:#ffe01f;stroke:#ffe01f;" x="53.416667" xlink:href="#m24ee4eda5f" y="231.267338"/>
     <use style="fill:#ffe01f;stroke:#ffe01f;" x="65.17" xlink:href="#m24ee4eda5f" y="208.813307"/>
     <use style="fill:#ffe01f;stroke:#ffe01f;" x="88.676667" xlink:href="#m24ee4eda5f" y="165.579595"/>
     <use style="fill:#ffe01f;stroke:#ffe01f;" x="135.69" xlink:href="#m24ee4eda5f" y="86.138919"/>
     <use style="fill:#ffe01f;stroke:#ffe01f;" x="170.95" xlink:href="#m24ee4eda5f" y="54.547908"/>
     <use style="fill:#ffe01f;stroke:#ffe01f;" x="300.236667" xlink:href="#m24ee4eda5f" y="69.30616"/>
     <use style="fill:#ffe01f;stroke:#ffe01f;" x="558.81" xlink:href="#m24ee4eda5f" y="107.390906"/>
    </g>
   </g>
   <g id="patch_3">
    <path d="M 47.54 243.16 
L 47.54 14.76 
" style="fill:none;stroke:#000000;stroke-linecap:square;stroke-linejoin:miter;stroke-width:0.8;"/>
   </g>
   <g id="patch_4">
    <path d="M 558.81 243.16 
L 558.81 14.76 
" style="fill:none;stroke:#000000;stroke-linecap:square;stroke-linejoin:miter;stroke-width:0.8;"/>
   </g>
   <g id="patch_5">
    <path d="M 47.54 243.16 
L 558.81 243.16 
" style="fill:none;stroke:#000000;stroke-linecap:square;stroke-linejoin:miter;stroke-width:0.8;"/>
   </g>
   <g id="patch_6">
    <path d="M 47.54 14.76 
L 558.81 14.76 
" style="fill:none;stroke:#000000;stroke-linecap:square;stroke-linejoin:miter;stroke-width:0.8;"/>
   </g>
   <g id="legend_1">
    <g id="patch_7">
     <path d="M 405.339687 238.16 
L 551.81 238.16 
Q 553.81 238.16 553.81 236.16 
L 553.81 119.456875 
Q 553.81 117.456875 551.81 117.456875 
L 405.339687 117.456875 
Q 403.339687 117.456875 403.339687 119.456875 
L 403.339687 236.16 
Q 403.339687 238.16 405.339687 238.16 
z
" style="fill:#ffffff;opacity:0.8;stroke:#cccccc;stroke-linejoin:miter;"/>
    </g>
    <g id="line2d_47">
     <path d="M 407.339687 125.555313 
L 427.339687 125.555313 
" style="fill:none;stroke:#000000;stroke-linecap:square;stroke-width:1.5;"/>
    </g>
    <g id="line2d_48"/>
    <g id="text_22">
     <!-- Ideal scaling -->
     <defs>
      <path d="M 9.8125 72.90625 
L 19.671875 72.90625 
L 19.671875 0 
L 9.8125 0 
z
" id="DejaVuSans-49"/>
      <path d="M 9.421875 75.984375 
L 18.40625 75.984375 
L 18.40625 0 
L 9.421875 0 
z
" id="DejaVuSans-6c"/>
      <path d="M 9.421875 54.6875 
L 18.40625 54.6875 
L 18.40625 0 
L 9.421875 0 
z
M 9.421875 75.984375 
L 18.40625 75.984375 
L 18.40625 64.59375 
L 9.421875 64.59375 
z
" id="DejaVuSans-69"/>
      <path d="M 54.890625 33.015625 
L 54.890625 0 
L 45.90625 0 
L 45.90625 32.71875 
Q 45.90625 40.484375 42.875 44.328125 
Q 39.84375 48.1875 33.796875 48.1875 
Q 26.515625 48.1875 22.3125 43.546875 
Q 18.109375 38.921875 18.109375 30.90625 
L 18.109375 0 
L 9.078125 0 
L 9.078125 54.6875 
L 18.109375 54.6875 
L 18.109375 46.1875 
Q 21.34375 51.125 25.703125 53.5625 
Q 30.078125 56 35.796875 56 
Q 45.21875 56 50.046875 50.171875 
Q 54.890625 44.34375 54.890625 33.015625 
z
" id="DejaVuSans-6e"/>
      <path d="M 45.40625 27.984375 
Q 45.40625 37.75 41.375 43.109375 
Q 37.359375 48.484375 30.078125 48.484375 
Q 22.859375 48.484375 18.828125 43.109375 
Q 14.796875 37.75 14.796875 27.984375 
Q 14.796875 18.265625 18.828125 12.890625 
Q 22.859375 7.515625 30.078125 7.515625 
Q 37.359375 7.515625 41.375 12.890625 
Q 45.40625 18.265625 45.40625 27.984375 
z
M 54.390625 6.78125 
Q 54.390625 -7.171875 48.1875 -13.984375 
Q 42 -20.796875 29.203125 -20.796875 
Q 24.46875 -20.796875 20.265625 -20.09375 
Q 16.0625 -19.390625 12.109375 -17.921875 
L 12.109375 -9.1875 
Q 16.0625 -11.328125 19.921875 -12.34375 
Q 23.78125 -13.375 27.78125 -13.375 
Q 36.625 -13.375 41.015625 -8.765625 
Q 45.40625 -4.15625 45.40625 5.171875 
L 45.40625 9.625 
Q 42.625 4.78125 38.28125 2.390625 
Q 33.9375 0 27.875 0 
Q 17.828125 0 11.671875 7.65625 
Q 5.515625 15.328125 5.515625 27.984375 
Q 5.515625 40.671875 11.671875 48.328125 
Q 17.828125 56 27.875 56 
Q 33.9375 56 38.28125 53.609375 
Q 42.625 51.21875 45.40625 46.390625 
L 45.40625 54.6875 
L 54.390625 54.6875 
z
" id="DejaVuSans-67"/>
     </defs>
     <g transform="translate(435.339687 129.055313)scale(0.1 -0.1)">
      <use xlink:href="#DejaVuSans-49"/>
      <use x="29.492188" xlink:href="#DejaVuSans-64"/>
      <use x="92.96875" xlink:href="#DejaVuSans-65"/>
      <use x="154.492188" xlink:href="#DejaVuSans-61"/>
      <use x="215.771484" xlink:href="#DejaVuSans-6c"/>
      <use x="243.554688" xlink:href="#DejaVuSans-20"/>
      <use x="275.341797" xlink:href="#DejaVuSans-73"/>
      <use x="327.441406" xlink:href="#DejaVuSans-63"/>
      <use x="382.421875" xlink:href="#DejaVuSans-61"/>
      <use x="443.701172" xlink:href="#DejaVuSans-6c"/>
      <use x="471.484375" xlink:href="#DejaVuSans-69"/>
      <use x="499.267578" xlink:href="#DejaVuSans-6e"/>
      <use x="562.646484" xlink:href="#DejaVuSans-67"/>
     </g>
    </g>
    <g id="line2d_49">
     <path d="M 407.339687 140.233438 
L 427.339687 140.233438 
" style="fill:none;stroke:#000000;stroke-linecap:square;stroke-width:1.5;"/>
    </g>
    <g id="line2d_50">
     <g>
      <use style="stroke:#000000;stroke-linejoin:miter;" x="417.339687" xlink:href="#ma5fc4349c6" y="140.233438"/>
     </g>
    </g>
    <g id="text_23">
     <!-- threads spread -->
     <defs>
      <path d="M 18.3125 70.21875 
L 18.3125 54.6875 
L 36.8125 54.6875 
L 36.8125 47.703125 
L 18.3125 47.703125 
L 18.3125 18.015625 
Q 18.3125 11.328125 20.140625 9.421875 
Q 21.96875 7.515625 27.59375 7.515625 
L 36.8125 7.515625 
L 36.8125 0 
L 27.59375 0 
Q 17.1875 0 13.234375 3.875 
Q 9.28125 7.765625 9.28125 18.015625 
L 9.28125 47.703125 
L 2.6875 47.703125 
L 2.6875 54.6875 
L 9.28125 54.6875 
L 9.28125 70.21875 
z
" id="DejaVuSans-74"/>
     </defs>
     <g transform="translate(435.339687 143.733438)scale(0.1 -0.1)">
      <use xlink:href="#DejaVuSans-74"/>
      <use x="39.208984" xlink:href="#DejaVuSans-68"/>
      <use x="102.587891" xlink:href="#DejaVuSans-72"/>
      <use x="143.669922" xlink:href="#DejaVuSans-65"/>
      <use x="205.193359" xlink:href="#DejaVuSans-61"/>
      <use x="266.472656" xlink:href="#DejaVuSans-64"/>
      <use x="329.949219" xlink:href="#DejaVuSans-73"/>
      <use x="382.048828" xlink:href="#DejaVuSans-20"/>
      <use x="413.835938" xlink:href="#DejaVuSans-73"/>
      <use x="465.935547" xlink:href="#DejaVuSans-70"/>
      <use x="529.412109" xlink:href="#DejaVuSans-72"/>
      <use x="570.494141" xlink:href="#DejaVuSans-65"/>
      <use x="632.017578" xlink:href="#DejaVuSans-61"/>
      <use x="693.296875" xlink:href="#DejaVuSans-64"/>
     </g>
    </g>
    <g id="line2d_51">
     <path d="M 407.339687 154.911563 
L 427.339687 154.911563 
" style="fill:none;stroke:#000090;stroke-dasharray:5.55,2.4;stroke-dashoffset:0;stroke-width:1.5;"/>
    </g>
    <g id="line2d_52">
     <g>
      <use style="fill:#000090;stroke:#000090;" x="417.339687" xlink:href="#me2ebc8f850" y="154.911563"/>
     </g>
    </g>
    <g id="text_24">
     <!-- cores spread -->
     <g transform="translate(435.339687 158.411563)scale(0.1 -0.1)">
      <use xlink:href="#DejaVuSans-63"/>
      <use x="54.980469" xlink:href="#DejaVuSans-6f"/>
      <use x="116.162109" xlink:href="#DejaVuSans-72"/>
      <use x="157.244141" xlink:href="#DejaVuSans-65"/>
      <use x="218.767578" xlink:href="#DejaVuSans-73"/>
      <use x="270.867188" xlink:href="#DejaVuSans-20"/>
      <use x="302.654297" xlink:href="#DejaVuSans-73"/>
      <use x="354.753906" xlink:href="#DejaVuSans-70"/>
      <use x="418.230469" xlink:href="#DejaVuSans-72"/>
      <use x="459.3125" xlink:href="#DejaVuSans-65"/>
      <use x="520.835938" xlink:href="#DejaVuSans-61"/>
      <use x="582.115234" xlink:href="#DejaVuSans-64"/>
     </g>
    </g>
    <g id="line2d_53">
     <path d="M 407.339687 169.589688 
L 427.339687 169.589688 
" style="fill:none;stroke:#1d00ff;stroke-dasharray:9.6,2.4,1.5,2.4;stroke-dashoffset:0;stroke-width:1.5;"/>
    </g>
    <g id="line2d_54">
     <g>
      <use style="fill:#1d00ff;stroke:#1d00ff;stroke-linejoin:miter;" x="417.339687" xlink:href="#mb69a627da9" y="169.589688"/>
     </g>
    </g>
    <g id="text_25">
     <!-- threads close -->
     <g transform="translate(435.339687 173.089688)scale(0.1 -0.1)">
      <use xlink:href="#DejaVuSans-74"/>
      <use x="39.208984" xlink:href="#DejaVuSans-68"/>
      <use x="102.587891" xlink:href="#DejaVuSans-72"/>
      <use x="143.669922" xlink:href="#DejaVuSans-65"/>
      <use x="205.193359" xlink:href="#DejaVuSans-61"/>
      <use x="266.472656" xlink:href="#DejaVuSans-64"/>
      <use x="329.949219" xlink:href="#DejaVuSans-73"/>
      <use x="382.048828" xlink:href="#DejaVuSans-20"/>
      <use x="413.835938" xlink:href="#DejaVuSans-63"/>
      <use x="468.816406" xlink:href="#DejaVuSans-6c"/>
      <use x="496.599609" xlink:href="#DejaVuSans-6f"/>
      <use x="557.78125" xlink:href="#DejaVuSans-73"/>
      <use x="609.880859" xlink:href="#DejaVuSans-65"/>
     </g>
    </g>
    <g id="line2d_55">
     <path d="M 407.339687 184.267813 
L 427.339687 184.267813 
" style="fill:none;stroke:#8d04fb;stroke-dasharray:1.5,2.475;stroke-dashoffset:0;stroke-width:1.5;"/>
    </g>
    <g id="line2d_56">
     <g>
      <use style="fill:#8d04fb;stroke:#8d04fb;stroke-linejoin:miter;" x="417.339687" xlink:href="#mc40b27ea73" y="184.267813"/>
     </g>
    </g>
    <g id="text_26">
     <!-- cores close -->
     <g transform="translate(435.339687 187.767813)scale(0.1 -0.1)">
      <use xlink:href="#DejaVuSans-63"/>
      <use x="54.980469" xlink:href="#DejaVuSans-6f"/>
      <use x="116.162109" xlink:href="#DejaVuSans-72"/>
      <use x="157.244141" xlink:href="#DejaVuSans-65"/>
      <use x="218.767578" xlink:href="#DejaVuSans-73"/>
      <use x="270.867188" xlink:href="#DejaVuSans-20"/>
      <use x="302.654297" xlink:href="#DejaVuSans-63"/>
      <use x="357.634766" xlink:href="#DejaVuSans-6c"/>
      <use x="385.417969" xlink:href="#DejaVuSans-6f"/>
      <use x="446.599609" xlink:href="#DejaVuSans-73"/>
      <use x="498.699219" xlink:href="#DejaVuSans-65"/>
     </g>
    </g>
    <g id="line2d_57">
     <path d="M 407.339687 198.945938 
L 427.339687 198.945938 
" style="fill:none;stroke:#ff4eb1;stroke-linecap:square;stroke-width:1.5;"/>
    </g>
    <g id="line2d_58">
     <g>
      <use style="fill:#ff4eb1;stroke:#ff4eb1;stroke-linejoin:miter;" x="417.339687" xlink:href="#mbd56b35257" y="198.945938"/>
     </g>
    </g>
    <g id="text_27">
     <!-- cores false -->
     <g transform="translate(435.339687 202.445938)scale(0.1 -0.1)">
      <use xlink:href="#DejaVuSans-63"/>
      <use x="54.980469" xlink:href="#DejaVuSans-6f"/>
      <use x="116.162109" xlink:href="#DejaVuSans-72"/>
      <use x="157.244141" xlink:href="#DejaVuSans-65"/>
      <use x="218.767578" xlink:href="#DejaVuSans-73"/>
      <use x="270.867188" xlink:href="#DejaVuSans-20"/>
      <use x="302.654297" xlink:href="#DejaVuSans-66"/>
      <use x="337.859375" xlink:href="#DejaVuSans-61"/>
      <use x="399.138672" xlink:href="#DejaVuSans-6c"/>
      <use x="426.921875" xlink:href="#DejaVuSans-73"/>
      <use x="479.021484" xlink:href="#DejaVuSans-65"/>
     </g>
    </g>
    <g id="line2d_59">
     <path d="M 407.339687 213.624063 
L 427.339687 213.624063 
" style="fill:none;stroke:#ff9669;stroke-dasharray:5.55,2.4;stroke-dashoffset:0;stroke-width:1.5;"/>
    </g>
    <g id="line2d_60">
     <g>
      <use style="fill:#ff9669;stroke:#ff9669;stroke-linejoin:miter;" x="417.339687" xlink:href="#m1c94b92ffd" y="213.624063"/>
     </g>
    </g>
    <g id="text_28">
     <!-- threads false -->
     <g transform="translate(435.339687 217.124063)scale(0.1 -0.1)">
      <use xlink:href="#DejaVuSans-74"/>
      <use x="39.208984" xlink:href="#DejaVuSans-68"/>
      <use x="102.587891" xlink:href="#DejaVuSans-72"/>
      <use x="143.669922" xlink:href="#DejaVuSans-65"/>
      <use x="205.193359" xlink:href="#DejaVuSans-61"/>
      <use x="266.472656" xlink:href="#DejaVuSans-64"/>
      <use x="329.949219" xlink:href="#DejaVuSans-73"/>
      <use x="382.048828" xlink:href="#DejaVuSans-20"/>
      <use x="413.835938" xlink:href="#DejaVuSans-66"/>
      <use x="449.041016" xlink:href="#DejaVuSans-61"/>
      <use x="510.320312" xlink:href="#DejaVuSans-6c"/>
      <use x="538.103516" xlink:href="#DejaVuSans-73"/>
      <use x="590.203125" xlink:href="#DejaVuSans-65"/>
     </g>
    </g>
    <g id="line2d_61">
     <path d="M 407.339687 228.302188 
L 427.339687 228.302188 
" style="fill:none;stroke:#ffe01f;stroke-dasharray:9.6,2.4,1.5,2.4;stroke-dashoffset:0;stroke-width:1.5;"/>
    </g>
    <g id="line2d_62">
     <g>
      <use style="fill:#ffe01f;stroke:#ffe01f;" x="417.339687" xlink:href="#m24ee4eda5f" y="228.302188"/>
     </g>
    </g>
    <g id="text_29">
     <!-- OMP_NUM_PROCS only -->
     <defs>
      <path d="M 39.40625 66.21875 
Q 28.65625 66.21875 22.328125 58.203125 
Q 16.015625 50.203125 16.015625 36.375 
Q 16.015625 22.609375 22.328125 14.59375 
Q 28.65625 6.59375 39.40625 6.59375 
Q 50.140625 6.59375 56.421875 14.59375 
Q 62.703125 22.609375 62.703125 36.375 
Q 62.703125 50.203125 56.421875 58.203125 
Q 50.140625 66.21875 39.40625 66.21875 
z
M 39.40625 74.21875 
Q 54.734375 74.21875 63.90625 63.9375 
Q 73.09375 53.65625 73.09375 36.375 
Q 73.09375 19.140625 63.90625 8.859375 
Q 54.734375 -1.421875 39.40625 -1.421875 
Q 24.03125 -1.421875 14.8125 8.828125 
Q 5.609375 19.09375 5.609375 36.375 
Q 5.609375 53.65625 14.8125 63.9375 
Q 24.03125 74.21875 39.40625 74.21875 
z
" id="DejaVuSans-4f"/>
      <path d="M 9.8125 72.90625 
L 24.515625 72.90625 
L 43.109375 23.296875 
L 61.8125 72.90625 
L 76.515625 72.90625 
L 76.515625 0 
L 66.890625 0 
L 66.890625 64.015625 
L 48.09375 14.015625 
L 38.1875 14.015625 
L 19.390625 64.015625 
L 19.390625 0 
L 9.8125 0 
z
" id="DejaVuSans-4d"/>
      <path d="M 19.671875 64.796875 
L 19.671875 37.40625 
L 32.078125 37.40625 
Q 38.96875 37.40625 42.71875 40.96875 
Q 46.484375 44.53125 46.484375 51.125 
Q 46.484375 57.671875 42.71875 61.234375 
Q 38.96875 64.796875 32.078125 64.796875 
z
M 9.8125 72.90625 
L 32.078125 72.90625 
Q 44.34375 72.90625 50.609375 67.359375 
Q 56.890625 61.8125 56.890625 51.125 
Q 56.890625 40.328125 50.609375 34.8125 
Q 44.34375 29.296875 32.078125 29.296875 
L 19.671875 29.296875 
L 19.671875 0 
L 9.8125 0 
z
" id="DejaVuSans-50"/>
      <path d="M 50.984375 -16.609375 
L 50.984375 -23.578125 
L -0.984375 -23.578125 
L -0.984375 -16.609375 
z
" id="DejaVuSans-5f"/>
      <path d="M 8.6875 72.90625 
L 18.609375 72.90625 
L 18.609375 28.609375 
Q 18.609375 16.890625 22.84375 11.734375 
Q 27.09375 6.59375 36.625 6.59375 
Q 46.09375 6.59375 50.34375 11.734375 
Q 54.59375 16.890625 54.59375 28.609375 
L 54.59375 72.90625 
L 64.5 72.90625 
L 64.5 27.390625 
Q 64.5 13.140625 57.4375 5.859375 
Q 50.390625 -1.421875 36.625 -1.421875 
Q 22.796875 -1.421875 15.734375 5.859375 
Q 8.6875 13.140625 8.6875 27.390625 
z
" id="DejaVuSans-55"/>
      <path d="M 44.390625 34.1875 
Q 47.5625 33.109375 50.5625 29.59375 
Q 53.5625 26.078125 56.59375 19.921875 
L 66.609375 0 
L 56 0 
L 46.6875 18.703125 
Q 43.0625 26.03125 39.671875 28.421875 
Q 36.28125 30.8125 30.421875 30.8125 
L 19.671875 30.8125 
L 19.671875 0 
L 9.8125 0 
L 9.8125 72.90625 
L 32.078125 72.90625 
Q 44.578125 72.90625 50.734375 67.671875 
Q 56.890625 62.453125 56.890625 51.90625 
Q 56.890625 45.015625 53.6875 40.46875 
Q 50.484375 35.9375 44.390625 34.1875 
z
M 19.671875 64.796875 
L 19.671875 38.921875 
L 32.078125 38.921875 
Q 39.203125 38.921875 42.84375 42.21875 
Q 46.484375 45.515625 46.484375 51.90625 
Q 46.484375 58.296875 42.84375 61.546875 
Q 39.203125 64.796875 32.078125 64.796875 
z
" id="DejaVuSans-52"/>
      <path d="M 64.40625 67.28125 
L 64.40625 56.890625 
Q 59.421875 61.53125 53.78125 63.8125 
Q 48.140625 66.109375 41.796875 66.109375 
Q 29.296875 66.109375 22.65625 58.46875 
Q 16.015625 50.828125 16.015625 36.375 
Q 16.015625 21.96875 22.65625 14.328125 
Q 29.296875 6.6875 41.796875 6.6875 
Q 48.140625 6.6875 53.78125 8.984375 
Q 59.421875 11.28125 64.40625 15.921875 
L 64.40625 5.609375 
Q 59.234375 2.09375 53.4375 0.328125 
Q 47.65625 -1.421875 41.21875 -1.421875 
Q 24.65625 -1.421875 15.125 8.703125 
Q 5.609375 18.84375 5.609375 36.375 
Q 5.609375 53.953125 15.125 64.078125 
Q 24.65625 74.21875 41.21875 74.21875 
Q 47.75 74.21875 53.53125 72.484375 
Q 59.328125 70.75 64.40625 67.28125 
z
" id="DejaVuSans-43"/>
      <path d="M 32.171875 -5.078125 
Q 28.375 -14.84375 24.75 -17.8125 
Q 21.140625 -20.796875 15.09375 -20.796875 
L 7.90625 -20.796875 
L 7.90625 -13.28125 
L 13.1875 -13.28125 
Q 16.890625 -13.28125 18.9375 -11.515625 
Q 21 -9.765625 23.484375 -3.21875 
L 25.09375 0.875 
L 2.984375 54.6875 
L 12.5 54.6875 
L 29.59375 11.921875 
L 46.6875 54.6875 
L 56.203125 54.6875 
z
" id="DejaVuSans-79"/>
     </defs>
     <g transform="translate(435.339687 231.802188)scale(0.1 -0.1)">
      <use xlink:href="#DejaVuSans-4f"/>
      <use x="78.710938" xlink:href="#DejaVuSans-4d"/>
      <use x="164.990234" xlink:href="#DejaVuSans-50"/>
      <use x="225.292969" xlink:href="#DejaVuSans-5f"/>
      <use x="275.292969" xlink:href="#DejaVuSans-4e"/>
      <use x="350.097656" xlink:href="#DejaVuSans-55"/>
      <use x="423.291016" xlink:href="#DejaVuSans-4d"/>
      <use x="509.570312" xlink:href="#DejaVuSans-5f"/>
      <use x="559.570312" xlink:href="#DejaVuSans-50"/>
      <use x="619.873047" xlink:href="#DejaVuSans-52"/>
      <use x="689.355469" xlink:href="#DejaVuSans-4f"/>
      <use x="768.066406" xlink:href="#DejaVuSans-43"/>
      <use x="837.890625" xlink:href="#DejaVuSans-53"/>
      <use x="901.367188" xlink:href="#DejaVuSans-20"/>
      <use x="933.154297" xlink:href="#DejaVuSans-6f"/>
      <use x="994.335938" xlink:href="#DejaVuSans-6e"/>
      <use x="1057.714844" xlink:href="#DejaVuSans-6c"/>
      <use x="1085.498047" xlink:href="#DejaVuSans-79"/>
     </g>
    </g>
   </g>
  </g>
 </g>
 <defs>
  <clipPath id="peeb8858773">
   <rect height="228.4" width="511.27" x="47.54" y="14.76"/>
  </clipPath>
 </defs>
</svg>
